<svg width="6" height="9" viewBox="0 0 6 9" fill="none" xmlns="http://www.w3.org/2000/svg">
<path d="M5.67 5.99C5.67 6.33667 5.58 6.66333 5.4 6.97C5.22667 7.27 4.96667 7.52 4.62 7.72C4.28 7.91333 3.87667 8.02667 3.41 8.06V8.87H2.77V8.05C2.10333 7.99 1.56667 7.79 1.16 7.45C0.753333 7.10333 0.543333 6.63667 0.53 6.05H2.03C2.07 6.53 2.31667 6.82 2.77 6.92V5.01C2.29 4.89 1.90333 4.77 1.61 4.65C1.31667 4.53 1.06333 4.33667 0.85 4.07C0.636667 3.80333 0.53 3.44 0.53 2.98C0.53 2.4 0.736667 1.92667 1.15 1.56C1.57 1.19333 2.11 0.983333 2.77 0.93V0.12H3.41V0.93C4.05 0.983333 4.56 1.17667 4.94 1.51C5.32667 1.84333 5.54333 2.30333 5.59 2.89H4.08C4.06 2.69667 3.99 2.53 3.87 2.39C3.75667 2.24333 3.60333 2.14 3.41 2.08V3.97C3.91 4.09667 4.30333 4.22 4.59 4.34C4.88333 4.45333 5.13667 4.64333 5.35 4.91C5.56333 5.17 5.67 5.53 5.67 5.99ZM1.99 2.91C1.99 3.13 2.05667 3.31 2.19 3.45C2.32333 3.58333 2.51667 3.69333 2.77 3.78V2.05C2.53 2.08333 2.34 2.17333 2.2 2.32C2.06 2.46667 1.99 2.66333 1.99 2.91ZM3.41 6.94C3.66333 6.89333 3.86 6.79 4 6.63C4.14667 6.47 4.22 6.27667 4.22 6.05C4.22 5.83 4.15 5.65333 4.01 5.52C3.87 5.38667 3.67 5.27667 3.41 5.19V6.94Z" fill="#F8A9A9"/>
</svg>
