<svg width="8" height="9" viewBox="0 0 8 9" fill="none" xmlns="http://www.w3.org/2000/svg">
<path d="M0.37 2.5C0.37 1.99333 0.516667 1.59667 0.81 1.31C1.11 1.02333 1.49333 0.88 1.96 0.88C2.42667 0.88 2.80667 1.02333 3.1 1.31C3.4 1.59667 3.55 1.99333 3.55 2.5C3.55 3.01333 3.4 3.41333 3.1 3.7C2.80667 3.98667 2.42667 4.13 1.96 4.13C1.49333 4.13 1.11 3.98667 0.81 3.7C0.516667 3.41333 0.37 3.01333 0.37 2.5ZM6.79 1L2.86 8H1.5L5.42 1H6.79ZM1.95 1.72C1.58333 1.72 1.4 1.98 1.4 2.5C1.4 3.02667 1.58333 3.29 1.95 3.29C2.13 3.29 2.27 3.22667 2.37 3.1C2.47 2.96667 2.52 2.76667 2.52 2.5C2.52 1.98 2.33 1.72 1.95 1.72ZM4.76 6.49C4.76 5.97667 4.90667 5.58 5.2 5.3C5.5 5.01333 5.88333 4.87 6.35 4.87C6.81667 4.87 7.19333 5.01333 7.48 5.3C7.77333 5.58 7.92 5.97667 7.92 6.49C7.92 7.00333 7.77333 7.40333 7.48 7.69C7.19333 7.97667 6.81667 8.12 6.35 8.12C5.87667 8.12 5.49333 7.97667 5.2 7.69C4.90667 7.40333 4.76 7.00333 4.76 6.49ZM6.34 5.71C5.96 5.71 5.77 5.97 5.77 6.49C5.77 7.01667 5.96 7.28 6.34 7.28C6.71333 7.28 6.9 7.01667 6.9 6.49C6.9 5.97 6.71333 5.71 6.34 5.71Z" fill="#F8A9A9"/>
</svg>
